<svg width="62" height="62" viewBox="0 0 62 62" fill="none" xmlns="http://www.w3.org/2000/svg">
<circle cx="30.9527" cy="31.3476" r="30.6524" fill="#33475B"/>
<path d="M37.3684 48.7526C35.3578 49.4983 33.1874 49.8977 30.9238 49.8977C20.671 49.8977 12.349 41.5757 12.349 31.3229C12.349 28.7531 12.8683 26.3031 13.8137 24.0794" stroke="#10A4DA" stroke-width="2.5299" stroke-miterlimit="10" stroke-linecap="round"/>
<path d="M23.2542 14.3992C25.5977 13.334 28.1941 12.7481 30.9371 12.7481C41.1899 12.7481 49.5119 21.0702 49.5119 31.3229C49.5119 33.267 49.219 35.1311 48.6597 36.8887" stroke="#10A4DA" stroke-width="2.5299" stroke-miterlimit="10" stroke-linecap="round"/>
<path d="M20.458 15.6642C18.9933 14.1995 16.6232 14.1995 15.1585 15.6642C13.6938 17.1288 13.6938 19.499 15.1585 20.9636C16.6232 22.4283 18.9933 22.4283 20.458 20.9636C21.9227 19.499 21.9227 17.1288 20.458 15.6642Z" stroke="#10A4DA" stroke-width="2.39675" stroke-miterlimit="10"/>
<path d="M46.1831 40.87L44.6785 49.2719L38.154 43.7594L46.1831 40.87Z" stroke="#10A4DA" stroke-width="2.2636" stroke-miterlimit="10"/>
</svg>
